<?xml version="1.0" encoding="utf-8"?>
<!-- Generator: Adobe Illustrator 26.5.0, SVG Export Plug-In . SVG Version: 6.00 Build 0)  -->
<svg version="1.1" id="Livello_1" xmlns="http://www.w3.org/2000/svg" xmlns:xlink="http://www.w3.org/1999/xlink"
	 viewBox="161.38 246.51 380.50 74.22" style="enable-background:new 0 0 1220.98 566.93;" xml:space="preserve">
<style type="text/css">
	.st0{fill:#A8FF00;}
</style>
<g id="ORIZZONTALE">
	<path class="st0" d="M187.6,264.64l-1.54-6.73l4.3-5.4h6.9l4.3,5.4l-1.54,6.73l-6.22,2.99L187.6,264.64z M215.28,290.75l-14.5-6.98
		l14.5-6.98l4.98-23.15h-5.81l-4.34,19.02l-16.2,7.8l-0.09-0.04l-0.09,0.04l-16.2-7.8l-4.34-19.02h-5.81l4.98,23.15l14.5,6.98
		l-14.5,6.98l-4.98,23.15h5.81l4.34-19.02l16.19-7.8l0.09,0.04l0.09-0.04l16.2,7.8l4.34,19.02h5.81L215.28,290.75z M268.9,299.12
		v-3.86c0-1.43-0.19-2.79-0.57-4.1c-0.38-1.3-0.92-2.52-1.62-3.65c-0.7-1.13-1.53-2.16-2.48-3.07s-2.02-1.67-3.19-2.29
		c1.18-0.62,2.24-1.38,3.19-2.29s1.78-1.92,2.48-3.04s1.24-2.33,1.62-3.63c0.38-1.3,0.57-2.67,0.57-4.09v-0.59
		c0-2.04-0.39-3.97-1.15-5.77c-0.77-1.81-1.83-3.38-3.17-4.72c-1.34-1.34-2.92-2.4-4.72-3.17c-1.81-0.77-3.73-1.15-5.77-1.15h-19.06
		v60.22h19.06c2.04,0,3.97-0.38,5.77-1.15c1.81-0.77,3.38-1.83,4.72-3.17c1.34-1.34,2.4-2.91,3.17-4.7
		C268.51,303.08,268.9,301.16,268.9,299.12z M263.48,269.94c0,1.34-0.25,2.6-0.76,3.76c-0.5,1.16-1.2,2.18-2.08,3.06
		c-0.88,0.88-1.9,1.57-3.07,2.08c-1.16,0.5-2.41,0.76-3.76,0.76h-13.39v-20.74h13.39c1.34,0,2.6,0.25,3.76,0.76
		c1.16,0.5,2.18,1.2,3.07,2.08c0.88,0.88,1.57,1.9,2.08,3.07c0.5,1.16,0.76,2.41,0.76,3.76V269.94z M263.48,299.12
		c0,1.34-0.25,2.6-0.76,3.76c-0.5,1.16-1.2,2.18-2.08,3.04c-0.88,0.87-1.9,1.55-3.07,2.06c-1.16,0.5-2.41,0.76-3.76,0.76h-13.39
		v-23.98h13.39c1.34,0,2.6,0.25,3.76,0.76c1.16,0.5,2.18,1.19,3.07,2.06c0.88,0.87,1.57,1.88,2.08,3.04
		c0.5,1.16,0.76,2.41,0.76,3.76V299.12z M312.23,299.96v-32.33c0-2.04-0.39-3.96-1.15-5.75c-0.77-1.79-1.83-3.36-3.17-4.7
		c-1.34-1.34-2.91-2.4-4.7-3.17s-3.71-1.15-5.75-1.15h-4.28c-2.04,0-3.97,0.39-5.77,1.15c-1.81,0.77-3.38,1.83-4.72,3.17
		s-2.4,2.91-3.17,4.7c-0.77,1.79-1.15,3.71-1.15,5.75v32.33c0,2.04,0.38,3.96,1.15,5.75s1.83,3.36,3.17,4.7
		c1.34,1.34,2.92,2.4,4.72,3.17c1.81,0.77,3.73,1.15,5.77,1.15h4.28c2.04,0,3.96-0.39,5.75-1.15c1.79-0.77,3.36-1.83,4.7-3.17
		c1.34-1.34,2.4-2.91,3.17-4.7C311.85,303.92,312.23,302,312.23,299.96z M306.82,299.96c0,1.34-0.25,2.6-0.76,3.76
		c-0.5,1.16-1.19,2.18-2.06,3.07c-0.87,0.88-1.88,1.57-3.04,2.08c-1.16,0.5-2.41,0.76-3.76,0.76h-3.78c-1.34,0-2.6-0.25-3.76-0.76
		c-1.16-0.5-2.18-1.2-3.06-2.08c-0.88-0.88-1.57-1.9-2.08-3.07c-0.5-1.16-0.76-2.41-0.76-3.76v-32.33c0-1.34,0.25-2.6,0.76-3.76
		c0.5-1.16,1.2-2.18,2.08-3.04c0.88-0.87,1.9-1.55,3.06-2.06c1.16-0.5,2.41-0.76,3.76-0.76h3.78c1.34,0,2.6,0.25,3.76,0.76
		c1.16,0.5,2.18,1.19,3.04,2.06c0.87,0.87,1.55,1.88,2.06,3.04c0.5,1.16,0.76,2.41,0.76,3.76V299.96z M359.06,299.12v-30.61
		c0-2.04-0.39-3.97-1.15-5.77c-0.77-1.81-1.83-3.38-3.17-4.72c-1.34-1.34-2.92-2.4-4.72-3.17c-1.81-0.77-3.73-1.15-5.77-1.15h-19.06
		v60.22h19.06c2.04,0,3.97-0.38,5.77-1.15c1.81-0.77,3.38-1.83,4.72-3.17c1.34-1.34,2.4-2.91,3.17-4.7
		C358.67,303.08,359.06,301.16,359.06,299.12z M353.64,299.12c0,1.34-0.25,2.6-0.76,3.76c-0.5,1.16-1.2,2.18-2.08,3.04
		c-0.88,0.87-1.9,1.55-3.07,2.06c-1.16,0.5-2.41,0.76-3.76,0.76h-13.39v-49.89h13.39c1.34,0,2.6,0.25,3.76,0.76
		c1.16,0.5,2.18,1.2,3.07,2.08c0.88,0.88,1.57,1.9,2.08,3.07c0.5,1.16,0.76,2.41,0.76,3.76V299.12z M401.51,253.69h-5.84
		l-12.39,25.03l-12.39-25.03h-5.84l15.58,31.49v28.72h5.42v-28.8L401.51,253.69z M443.12,282.24h-15.03v5.16h9.62v12.56
		c0,1.34-0.25,2.6-0.76,3.76c-0.5,1.16-1.19,2.18-2.06,3.07c-0.87,0.88-1.88,1.57-3.04,2.08c-1.16,0.5-2.41,0.76-3.76,0.76h-3.78
		c-1.34,0-2.6-0.25-3.76-0.76c-1.16-0.5-2.18-1.2-3.06-2.08c-0.88-0.88-1.57-1.9-2.08-3.07c-0.5-1.16-0.76-2.41-0.76-3.76v-32.33
		c0-1.34,0.25-2.6,0.76-3.76c0.51-1.16,1.2-2.18,2.08-3.04c0.88-0.87,1.9-1.55,3.06-2.06c1.16-0.5,2.41-0.76,3.76-0.76h3.78
		c1.34,0,2.6,0.25,3.76,0.76c1.16,0.5,2.18,1.19,3.04,2.06c0.87,0.87,1.55,1.88,2.06,3.04c0.51,1.16,0.76,2.41,0.76,3.76v3.28
		l5.42-0.84v-2.44c0-2.04-0.39-3.96-1.15-5.75c-0.77-1.79-1.83-3.36-3.17-4.7c-1.34-1.34-2.91-2.4-4.7-3.17
		c-1.79-0.77-3.71-1.15-5.75-1.15h-4.28c-2.04,0-3.97,0.39-5.77,1.15c-1.81,0.77-3.38,1.83-4.72,3.17s-2.4,2.91-3.17,4.7
		c-0.77,1.79-1.15,3.71-1.15,5.75v32.33c0,2.04,0.38,3.96,1.15,5.75s1.83,3.36,3.17,4.7c1.34,1.34,2.92,2.4,4.72,3.17
		c1.81,0.77,3.73,1.15,5.77,1.15h3.15c2.29,0,4.38-0.51,6.26-1.53c1.88-1.02,3.47-2.4,4.79-4.14l3.15,4.83h1.72v-31.65H443.12z
		 M489.06,299.96v-32.33c0-2.04-0.39-3.96-1.15-5.75c-0.77-1.79-1.83-3.36-3.17-4.7c-1.34-1.34-2.91-2.4-4.7-3.17
		c-1.79-0.77-3.71-1.15-5.75-1.15h-4.28c-2.04,0-3.97,0.39-5.77,1.15c-1.81,0.77-3.38,1.83-4.72,3.17s-2.4,2.91-3.17,4.7
		c-0.77,1.79-1.15,3.71-1.15,5.75v32.33c0,2.04,0.38,3.96,1.15,5.75s1.83,3.36,3.17,4.7c1.34,1.34,2.92,2.4,4.72,3.17
		c1.81,0.77,3.73,1.15,5.77,1.15h4.28c2.04,0,3.96-0.39,5.75-1.15c1.79-0.77,3.36-1.83,4.7-3.17c1.34-1.34,2.4-2.91,3.17-4.7
		C488.68,303.92,489.06,302,489.06,299.96z M483.64,299.96c0,1.34-0.25,2.6-0.76,3.76c-0.5,1.16-1.19,2.18-2.06,3.07
		c-0.87,0.88-1.88,1.57-3.04,2.08c-1.16,0.5-2.41,0.76-3.76,0.76h-3.78c-1.34,0-2.6-0.25-3.76-0.76c-1.16-0.5-2.18-1.2-3.06-2.08
		c-0.88-0.88-1.57-1.9-2.08-3.07c-0.5-1.16-0.76-2.41-0.76-3.76v-32.33c0-1.34,0.25-2.6,0.76-3.76c0.51-1.16,1.2-2.18,2.08-3.04
		c0.88-0.87,1.9-1.55,3.06-2.06c1.16-0.5,2.41-0.76,3.76-0.76h3.78c1.34,0,2.6,0.25,3.76,0.76c1.16,0.5,2.18,1.19,3.04,2.06
		c0.87,0.87,1.55,1.88,2.06,3.04c0.5,1.16,0.76,2.41,0.76,3.76V299.96z M535.88,313.9v-60.22h-5.42v46.44l-0.55-2.56l-25.11-43.88
		h-2.81v60.22h5.42v-46.44l0.5,2.6l25.11,43.84H535.88z"/>
</g>
</svg>
